 http://www.imdb.com/title/tt0100150/

Source: Millers.Crossing.1990.720p.BluRay.x264-Japhson

Subs: Arabic, Croatian, Danish, Dutch, English, French, Hungarian, Italian, Polish, Romanian, Spanish and Turkish.

Sample and Screens included.

General
Complete name                    : Millers Crossing-720p MP4 AAC x264 BRRip 1990-CC.mp4
Format                           : MPEG-4
Format profile                   : Base Media
Codec ID                         : isom
File size                        : 2.11 GiB
Duration                         : 1h 54mn
Overall bit rate                 : 2 632 Kbps
Encoded date                     : UTC 2012-06-24 16:34:53

Video
ID                               : 1
Format                           : AVC
Format/Info                      : Advanced Video Codec
Format profile                   : High@L3.1
Format settings, CABAC           : Yes
Format settings, ReFrames        : 5 frames
Codec ID                         : avc1
Codec ID/Info                    : Advanced Video Coding
Duration                         : 1h 54mn
Bit rate mode                    : Variable
Bit rate                         : 2 244 Kbps
Nominal bit rate                 : 2 265 Kbps
Maximum bit rate                 : 15.2 Mbps
Width                            : 1 280 pixels
Height                           : 688 pixels
Display aspect ratio             : 1.860
Frame rate mode                  : Variable
Frame rate                       : 23.976 fps
Minimum frame rate               : 19.048 fps
Maximum frame rate               : 24.390 fps
Resolution                       : 24 bits
Colorimetry                      : 4:2:0
Scan type                        : Progressive
Bits/(Pixel*Frame)               : 0.106
Stream size                      : 1.80 GiB (85%)
Writing library                  : x264 core 112

Audio
ID                               : 2
Format                           : AAC
Format/Info                      : Advanced Audio Codec
Format version                   : Version 4
Format profile                   : LC
Format settings, SBR             : No
Codec ID                         : 40
Duration                         : 1h 54mn
Bit rate mode                    : Variable
Bit rate                         : 384 Kbps
Maximum bit rate                 : 664 Kbps
Channel(s)                       : 6 channels
Channel positions                : Front: L C R, Rear: L R, LFE
Sampling rate                    : 48.0 KHz
Resolution                       : 16 bits
Stream size                      : 315 MiB (15%)
Language                         : English

Enjoy..

Requested by sv8pro.

More coming up.